<svg xmlns="http://www.w3.org/2000/svg" viewBox="0 0 141.52 39.24"><defs><style>.cls-1{fill:none;}.cls-2{fill:#f05928;}.cls-3{fill:#af1f24;}.cls-4{fill:#f79420;}</style></defs><title>Asset 11</title><g id="Layer_2" data-name="Layer 2"><g id="Layer_1-2" data-name="Layer 1"><polygon class="cls-1" points="27.44 7.74 27.44 31.29 47.62 19.23 27.44 7.74"/><polygon class="cls-2" points="47.62 19.23 47.62 19.23 54.93 23.39 54.75 15.55 27.44 0 27.44 7.74 47.62 19.23"/><polygon class="cls-3" points="27.44 31.29 27.44 39.24 54.93 23.39 47.62 19.23 27.44 31.29"/><polygon class="cls-4" points="47.62 19.23 54.93 23.39 47.62 19.23 47.62 19.23"/><polygon class="cls-1" points="27.49 7.74 27.49 31.29 7.3 19.23 27.49 7.74"/><polygon class="cls-3" points="7.3 19.23 7.3 19.23 0 23.39 0.18 15.55 27.49 0 27.49 7.74 7.3 19.23"/><polygon class="cls-2" points="27.49 31.29 27.49 39.24 0 23.39 7.3 19.23 27.49 31.29"/><polygon class="cls-4" points="7.3 19.23 0 23.39 7.3 19.23 7.3 19.23"/><path class="cls-2" d="M64.59,37.89V29.28h.85v5l4.75-5h.94L67.6,33.06l3.7,4.83h-.94l-3.3-4.34-1.63,1.69v2.65Z"/><path class="cls-2" d="M77.3,38a3.65,3.65,0,0,1-1.65-.37,4.09,4.09,0,0,1-1.28-1,4.47,4.47,0,0,1-.83-1.4,4.64,4.64,0,0,1-.29-1.62,4.48,4.48,0,0,1,.31-1.65,4.56,4.56,0,0,1,.86-1.4,4.15,4.15,0,0,1,1.29-1,3.64,3.64,0,0,1,1.6-.36,3.56,3.56,0,0,1,1.65.38,4.13,4.13,0,0,1,1.28,1,4.62,4.62,0,0,1,.82,1.4,4.55,4.55,0,0,1,.29,1.6A4.48,4.48,0,0,1,81,35.25a4.54,4.54,0,0,1-.85,1.39,4.11,4.11,0,0,1-1.28,1A3.63,3.63,0,0,1,77.3,38Zm-3.19-4.37a4,4,0,0,0,.23,1.35A3.68,3.68,0,0,0,75,36.09a3.22,3.22,0,0,0,1,.8,2.81,2.81,0,0,0,1.3.3,2.78,2.78,0,0,0,1.32-.32,3.23,3.23,0,0,0,1-.83,3.83,3.83,0,0,0,.64-1.15,4,4,0,0,0,0-2.67,3.7,3.7,0,0,0-.66-1.15,3.26,3.26,0,0,0-1-.8A2.79,2.79,0,0,0,77.3,30,2.83,2.83,0,0,0,76,30.3a3.16,3.16,0,0,0-1,.82,3.81,3.81,0,0,0-.64,1.15A4,4,0,0,0,74.11,33.58Z"/><path class="cls-2" d="M92.48,37.89V30.81l-3.15,5.48h-.5l-3.15-5.48v7.08h-.85V29.27h.87l3.36,5.9,3.39-5.9h.86v8.62Z"/><path class="cls-2" d="M100.88,37.19a2.69,2.69,0,0,0,1.35-.31,2.44,2.44,0,0,0,.86-.81,3.3,3.3,0,0,0,.45-1.15,6.68,6.68,0,0,0,.13-1.3V29.27h.85v4.35a6.87,6.87,0,0,1-.19,1.66,3.94,3.94,0,0,1-.62,1.38,3.09,3.09,0,0,1-1.12.95,3.69,3.69,0,0,1-1.69.35,3.63,3.63,0,0,1-1.72-.37,3.14,3.14,0,0,1-1.12-1,4,4,0,0,1-.61-1.38,7,7,0,0,1-.18-1.6V29.27h.84v4.35a6.5,6.5,0,0,0,.13,1.32,3.33,3.33,0,0,0,.46,1.14,2.43,2.43,0,0,0,.86.8A2.68,2.68,0,0,0,100.88,37.19Z"/><path class="cls-2" d="M109.3,30.85v7h-.85V29.27h.66l5.71,7.18V29.28h.85v8.61h-.74Z"/><path class="cls-2" d="M119.72,37.89V29.27h.85v8.62Z"/><path class="cls-2" d="M124.63,37.89V29.28h.85v5l4.75-5h.94l-3.52,3.79,3.7,4.83h-.94l-3.3-4.34-1.63,1.69v2.65Z"/><path class="cls-2" d="M137,29.27h.72l3.58,8.62h-.9l-1.12-2.7h-3.87l-1.1,2.7h-.91Zm2.09,5.26-1.74-4.26-1.76,4.26Z"/><path class="cls-3" d="M64.46,24.84V3.09h9.31a5.91,5.91,0,0,1,2.65.6,6.67,6.67,0,0,1,2.08,1.59,7.62,7.62,0,0,1,1.36,2.24A6.84,6.84,0,0,1,80.36,10,7.49,7.49,0,0,1,80,12.23a6.79,6.79,0,0,1-.92,1.92,6.16,6.16,0,0,1-1.44,1.47,5.63,5.63,0,0,1-1.88.89l5.27,8.33H77.94L73,17H67.22v7.81Zm2.76-10.27h6.59a3.24,3.24,0,0,0,1.55-.37,3.67,3.67,0,0,0,1.18-1,4.82,4.82,0,0,0,.77-1.46A5.38,5.38,0,0,0,77.58,10a4.66,4.66,0,0,0-.32-1.73,5.1,5.1,0,0,0-.86-1.44,3.9,3.9,0,0,0-1.26-1,3.41,3.41,0,0,0-1.52-.35h-6.4Z"/><path class="cls-3" d="M106,3.09l6.59,11.34,6.65-11.34h3L114,16.9v7.94h-2.76v-8L103,3.09Z"/><polygon class="cls-3" points="93.1 3.08 92.79 3.08 91.88 3.08 90.99 3.08 90.76 3.08 81.9 24.84 84.81 24.84 91.82 5.76 91.88 5.76 91.96 5.76 99.03 24.84 101.98 24.84 93.1 3.08"/><polygon class="cls-3" points="132.63 3.08 132.32 3.08 131.42 3.08 130.52 3.08 130.3 3.08 121.43 24.84 124.34 24.84 131.36 5.76 131.42 5.76 131.49 5.76 138.57 24.84 141.52 24.84 132.63 3.08"/></g></g></svg>