<svg xmlns="http://www.w3.org/2000/svg" viewBox="0 0 363.93 100.92"><defs><style>.cls-1{fill:none;}.cls-2{fill:#fff;}.cls-3{fill:#d0d2d3;}.cls-4{fill:#f79420;}</style></defs><title>Asset 11</title><g id="Layer_2" data-name="Layer 2"><g id="Layer_1-2" data-name="Layer 1"><polygon class="cls-1" points="70.56 19.89 70.56 80.45 122.47 49.44 70.56 19.89"/><polygon class="cls-2" points="122.47 49.44 122.47 49.44 141.25 60.14 140.8 39.99 70.56 0 70.56 19.89 122.47 49.44"/><polygon class="cls-3" points="70.56 80.45 70.56 100.92 141.25 60.14 122.47 49.44 70.56 80.45"/><polygon class="cls-4" points="122.47 49.44 141.25 60.14 122.47 49.44 122.47 49.44"/><polygon class="cls-1" points="70.7 19.89 70.7 80.45 18.78 49.44 70.7 19.89"/><polygon class="cls-3" points="18.78 49.44 18.78 49.44 0 60.14 0.46 39.99 70.7 0 70.7 19.89 18.78 49.44"/><polygon class="cls-2" points="70.7 80.45 70.7 100.92 0 60.14 18.78 49.44 70.7 80.45"/><polygon class="cls-4" points="18.78 49.44 0 60.14 18.78 49.44 18.78 49.44"/><path class="cls-2" d="M166.1,97.45V75.31h2.19V88.17l12.21-12.9h2.4L173.84,85l9.52,12.43H181L172.47,86.3l-4.19,4.34v6.81Z"/><path class="cls-2" d="M198.79,97.6a9.39,9.39,0,0,1-4.23-1,10.53,10.53,0,0,1-3.29-2.53,11.51,11.51,0,0,1-2.12-3.61,11.91,11.91,0,0,1-.75-4.15,11.53,11.53,0,0,1,.8-4.25,11.7,11.7,0,0,1,2.2-3.59A10.64,10.64,0,0,1,194.7,76a9.34,9.34,0,0,1,4.12-.92,9.14,9.14,0,0,1,4.23,1,10.63,10.63,0,0,1,3.28,2.58,11.89,11.89,0,0,1,2.11,3.61,11.69,11.69,0,0,1,.75,4.11,11.53,11.53,0,0,1-.8,4.25,11.66,11.66,0,0,1-2.19,3.58,10.57,10.57,0,0,1-3.29,2.47A9.34,9.34,0,0,1,198.79,97.6Zm-8.21-11.24a10.33,10.33,0,0,0,.59,3.48,9.45,9.45,0,0,0,1.69,3,8.28,8.28,0,0,0,2.59,2.06,7.23,7.23,0,0,0,3.34.76,7.14,7.14,0,0,0,3.4-.81,8.29,8.29,0,0,0,2.59-2.12,9.82,9.82,0,0,0,1.64-3,10.2,10.2,0,0,0,0-6.86,9.55,9.55,0,0,0-1.7-3,8.39,8.39,0,0,0-2.59-2,7.17,7.17,0,0,0-3.31-.77,7.26,7.26,0,0,0-3.4.8A8.1,8.1,0,0,0,192.8,80a9.82,9.82,0,0,0-1.64,3A10.17,10.17,0,0,0,190.58,86.36Z"/><path class="cls-2" d="M237.83,97.45V79.24l-8.09,14.08h-1.28l-8.09-14.08V97.45h-2.19V75.27h2.25l8.65,15.18,8.71-15.18H240V97.45Z"/><path class="cls-2" d="M259.44,95.64a6.92,6.92,0,0,0,3.48-.8,6.3,6.3,0,0,0,2.22-2.09,8.49,8.49,0,0,0,1.16-3,17.17,17.17,0,0,0,.33-3.34V75.27h2.19V86.46a17.68,17.68,0,0,1-.5,4.26,10.13,10.13,0,0,1-1.61,3.54,8,8,0,0,1-2.89,2.44,9.49,9.49,0,0,1-4.34.91,9.34,9.34,0,0,1-4.42-1,8.07,8.07,0,0,1-2.89-2.51,10.19,10.19,0,0,1-1.56-3.56,18,18,0,0,1-.47-4.12V75.27h2.15V86.46a16.69,16.69,0,0,0,.34,3.4,8.53,8.53,0,0,0,1.17,2.94,6.24,6.24,0,0,0,2.2,2.06A6.87,6.87,0,0,0,259.44,95.64Z"/><path class="cls-2" d="M281.08,79.34V97.45h-2.19V75.27h1.69l14.68,18.46V75.31h2.19V97.45h-1.9Z"/><path class="cls-2" d="M307.87,97.45V75.27h2.19V97.45Z"/><path class="cls-2" d="M320.49,97.45V75.31h2.19V88.17l12.21-12.9h2.4L328.24,85l9.52,12.43h-2.4L326.86,86.3l-4.19,4.34v6.81Z"/><path class="cls-2" d="M352.31,75.27h1.84l9.21,22.17h-2.31l-2.87-6.93h-10l-2.84,6.93H343Zm5.37,13.52-4.47-11-4.53,11Z"/><path class="cls-2" d="M165.77,63.88V7.93h24a15.19,15.19,0,0,1,6.82,1.54,17.16,17.16,0,0,1,5.36,4.1,19.58,19.58,0,0,1,3.51,5.75,17.57,17.57,0,0,1,1.26,6.5,19.24,19.24,0,0,1-.83,5.63,17.42,17.42,0,0,1-2.36,4.92,15.81,15.81,0,0,1-3.7,3.78,14.43,14.43,0,0,1-4.85,2.29l13.55,21.43h-8L187.68,43.79H172.86V63.88Zm7.09-26.4H189.8a8.32,8.32,0,0,0,4-.95,9.45,9.45,0,0,0,3-2.56,12.4,12.4,0,0,0,2-3.74,13.86,13.86,0,0,0,.71-4.41,12,12,0,0,0-.83-4.45,13.11,13.11,0,0,0-2.21-3.7,10,10,0,0,0-3.23-2.52,8.77,8.77,0,0,0-3.9-.91H172.86Z"/><path class="cls-2" d="M272.65,7.93l16.94,29.16,17.1-29.16h7.72L293.14,43.47V63.88H286V43.31L264.85,7.93Z"/><polygon class="cls-2" points="239.41 7.93 238.62 7.93 236.29 7.93 233.99 7.93 233.4 7.93 210.61 63.88 218.09 63.88 236.13 16.82 236.29 16.82 236.47 16.82 254.68 63.88 262.26 63.88 239.41 7.93"/><polygon class="cls-2" points="341.07 7.93 340.29 7.93 337.96 7.93 335.66 7.93 335.07 7.93 312.27 63.88 319.76 63.88 337.8 16.82 337.96 16.82 338.14 16.82 356.35 63.88 363.93 63.88 341.07 7.93"/></g></g></svg>